<?xml version="1.0" standalone="no"?>
<!DOCTYPE svg PUBLIC "-//W3C//DTD SVG 20010904//EN"
 "http://www.w3.org/TR/2001/REC-SVG-20010904/DTD/svg10.dtd">
<svg version="1.0" xmlns="http://www.w3.org/2000/svg"
 width="620.000000pt" height="390.000000pt" viewBox="0 0 620.000000 390.000000"
 preserveAspectRatio="xMidYMid meet">

<g transform="translate(0.000000,390.000000) scale(0.100000,-0.100000)"
fill="#000000" stroke="none">
<path d="M0 1950 l0 -1950 3100 0 3100 0 0 1950 0 1950 -3100 0 -3100 0 0
-1950z m2530 1494 c0 -19 19 -18 27 2 5 15 7 15 15 0 6 -11 16 -15 30 -10 11
3 23 2 27 -4 3 -6 20 -12 36 -15 17 -2 43 -9 59 -16 22 -9 32 -9 44 1 12 10
16 10 19 1 4 -10 9 -10 24 0 26 16 43 -7 27 -36 -8 -15 -7 -22 5 -29 9 -4 21
-24 27 -43 6 -19 17 -35 23 -35 15 0 38 -47 31 -63 -2 -7 10 -21 28 -32 19
-11 27 -20 19 -23 -8 -3 -1 -14 20 -31 33 -28 33 -51 0 -51 -20 0 -41 -19 -41
-37 0 -7 6 -13 14 -13 7 0 19 -7 26 -15 10 -12 9 -16 -4 -21 -9 -3 -16 -14
-16 -23 0 -14 2 -14 11 -1 9 13 10 13 7 0 -2 -8 -17 -22 -34 -30 -16 -8 -45
-25 -65 -37 -32 -21 -46 -22 -150 -19 -63 2 -125 6 -139 10 -22 6 -22 5 5 -11
31 -18 157 -25 249 -13 43 5 54 -6 33 -34 -11 -15 -27 -18 -94 -18 -87 0 -143
14 -243 60 -36 16 -73 32 -83 36 -9 3 -22 17 -27 31 -5 14 -16 25 -25 25 -14
0 -13 3 2 26 16 24 16 27 0 36 -9 5 -17 14 -17 21 0 8 3 7 9 -2 14 -21 44 13
44 50 0 26 6 33 32 38 6 2 25 11 43 23 26 16 32 17 32 4 0 -8 -4 -18 -10 -21
-5 -3 -10 -14 -9 -23 0 -13 3 -11 12 6 8 18 17 22 35 19 18 -3 26 1 33 20 11
29 11 34 2 31 -12 -4 -15 5 -8 25 4 9 15 17 24 17 14 0 14 2 1 10 -9 6 -11 13
-5 18 6 4 17 16 25 27 11 16 11 17 0 8 -23 -21 -43 -17 -31 6 8 15 7 20 -5 25
-10 4 -14 12 -10 23 4 9 1 20 -6 25 -10 6 -10 10 2 18 21 14 -5 13 -32 -1 -16
-9 -19 -8 -12 3 11 17 14 39 5 34 -12 -8 -71 26 -71 40 0 8 6 11 15 8 8 -4 15
-12 15 -20z m80 -214 c0 -5 -5 -10 -11 -10 -5 0 -7 5 -4 10 3 6 8 10 11 10 2
0 4 -4 4 -10z m-190 -60 c0 -5 -4 -10 -10 -10 -5 0 -10 5 -10 10 0 6 5 10 10
10 6 0 10 -4 10 -10z m1552 -55 c11 -14 28 -25 39 -25 23 0 25 -36 4 -64 -25
-33 -17 -36 33 -11 65 32 109 45 151 44 20 0 30 -3 23 -6 -23 -9 -44 -61 -32
-82 17 -32 11 -36 -13 -8 -22 27 -22 27 -52 8 -17 -10 -48 -24 -69 -31 -21 -7
-61 -30 -89 -50 -53 -40 -93 -55 -101 -36 -3 7 -8 6 -14 -3 -9 -12 -13 -12
-26 -2 -11 9 -16 10 -16 2 0 -6 -6 -11 -14 -11 -8 0 -17 -6 -19 -12 -4 -10 -8
-10 -15 0 -5 8 -20 12 -33 10 -17 -2 -24 2 -24 14 0 10 -8 23 -17 30 -9 7 -20
25 -24 41 -5 23 -3 27 16 27 13 0 37 9 54 19 22 14 36 17 46 11 23 -15 28 -12
32 18 3 24 7 27 40 27 32 0 37 3 42 28 5 25 16 31 54 30 6 -1 12 8 12 18 0 12
-5 16 -15 13 -11 -5 -13 -2 -9 10 8 21 13 20 36 -9z m116 -39 c-5 -33 -23 -24
-26 13 -3 31 -2 33 13 21 9 -7 15 -23 13 -34z m-39 7 c0 -25 -1 -26 -9 -8 -12
27 -12 35 0 35 6 0 10 -12 9 -27z m-421 -180 c27 -24 40 -71 31 -113 -23 -109
-220 -145 -316 -57 -27 24 -29 54 -8 84 18 26 77 40 108 25 22 -11 22 -11 -2
-11 -32 -1 -61 -28 -61 -56 0 -35 34 -58 94 -63 60 -5 106 13 132 54 25 38 4
101 -39 119 -18 7 -35 11 -39 9 -5 -3 -8 -1 -8 5 0 25 80 28 108 4z m-70 -49
c27 -19 28 -55 3 -78 -28 -25 -91 -31 -116 -12 -19 16 -19 16 8 10 17 -4 36 0
52 10 28 19 32 38 10 56 -16 13 -11 30 8 30 7 0 23 -7 35 -16z m-893 -69 c28
-8 78 -16 113 -18 69 -6 82 -11 64 -29 -25 -25 -236 28 -258 64 -5 8 -1 9 12
4 10 -5 42 -14 69 -21z m579 -39 c72 -30 96 -103 53 -167 -24 -37 -116 -89
-157 -89 -37 0 -92 18 -102 32 -25 40 17 98 71 98 l25 0 -22 -16 c-32 -22 -26
-65 11 -78 84 -30 194 89 144 155 -20 26 -73 49 -115 49 -52 0 -158 -33 -202
-63 -70 -47 -90 -59 -90 -53 0 9 121 97 150 109 73 30 100 36 148 37 29 0 67
-6 86 -14z m-566 -26 c55 -25 81 -56 82 -98 0 -67 -81 -108 -163 -81 -41 13
-41 13 -13 17 37 5 73 28 81 53 15 47 -44 89 -125 89 -160 0 -227 -155 -110
-254 94 -79 332 -79 467 0 63 36 63 25 0 -16 -103 -68 -160 -85 -282 -85 -139
0 -198 19 -265 84 -68 65 -78 139 -30 218 38 63 110 92 230 92 63 1 96 -4 128
-19z m540 -50 c12 -12 22 -30 22 -41 0 -30 -44 -69 -77 -68 -26 0 -27 1 -6 9
26 11 45 43 37 63 -18 48 -100 45 -211 -8 -40 -19 -73 -32 -73 -31 0 8 100 67
136 80 61 23 146 20 172 -4z m-635 -27 l32 -18 -45 -3 c-106 -8 -104 -94 2
-137 56 -23 196 -23 257 -1 58 21 63 14 8 -12 -92 -43 -250 -52 -333 -17 -94
39 -115 147 -36 189 36 20 76 20 115 -1z m337 -127 c0 -2 -7 -7 -16 -10 -8 -3
-12 -2 -9 4 6 10 25 14 25 6z m550 -90 c0 -8 -5 -18 -11 -22 -6 -3 -20 -27
-31 -51 -22 -50 -34 -53 -17 -4 13 38 3 54 -17 27 -10 -14 -14 -16 -14 -5 0
19 10 32 40 52 30 21 50 22 50 3z m50 -2 c0 -3 -11 -20 -24 -37 -13 -18 -31
-48 -39 -67 -9 -19 -16 -28 -16 -19 -2 27 21 83 42 107 19 21 37 29 37 16z
m140 -20 c0 -44 -25 -147 -37 -151 -27 -11 -27 8 3 145 5 25 34 30 34 6z m148
4 c-3 -7 -19 -14 -36 -16 -39 -4 -65 -38 -60 -79 2 -23 8 -29 36 -31 20 -2 32
-9 32 -18 0 -23 -87 -19 -100 5 -22 42 -2 117 37 140 26 15 96 14 91 -1z m132
-3 c0 -10 -10 -15 -27 -15 -16 0 -33 -4 -39 -8 -20 -13 -36 -54 -30 -78 5 -19
13 -24 36 -24 19 0 30 -5 30 -14 0 -34 -94 -19 -106 16 -10 33 5 84 33 112 30
30 103 38 103 11z m-981 -31 c-47 -49 -150 -108 -234 -134 -43 -13 -112 -24
-176 -27 l-107 -6 -26 41 c-14 23 -26 45 -26 50 0 5 30 3 68 -4 174 -34 355
-4 477 80 64 44 66 44 24 0z m589 -8 c2 -27 -2 -36 -18 -41 -11 -3 -20 -11
-20 -16 0 -5 -4 -9 -10 -9 -18 0 -11 46 11 74 27 34 34 33 37 -8z m-591 -90
c-100 -91 -228 -156 -348 -179 l-59 -11 -35 34 c-19 19 -35 38 -35 42 0 4 35
8 78 8 131 0 302 55 397 128 64 49 65 36 2 -22z m53 -45 c-42 -60 -146 -144
-224 -182 -100 -49 -138 -57 -171 -35 -34 22 -31 36 8 36 78 1 291 108 367
184 34 34 46 32 20 -3z m482 -48 c24 -22 24 -63 -1 -63 -10 0 -21 9 -24 20 -3
12 -14 20 -26 20 -20 0 -21 -5 -21 -80 0 -67 3 -81 19 -89 22 -12 31 -5 31 26
0 16 6 23 19 23 29 0 33 -15 17 -55 -15 -35 -17 -36 -63 -33 -39 2 -50 7 -60
28 -16 32 -17 152 -1 168 7 7 8 12 3 12 -4 0 0 9 10 20 22 24 72 26 97 3z
m398 -3 c25 -25 26 -60 2 -60 -9 0 -23 9 -30 20 -7 11 -19 20 -27 20 -12 0
-15 -16 -15 -84 0 -74 2 -84 19 -89 16 -4 21 2 26 24 9 40 45 41 45 2 0 -43
-14 -55 -63 -60 -66 -7 -80 18 -76 133 3 71 7 88 23 100 28 20 73 17 96 -6z
m-216 -23 c7 -19 7 -37 -1 -57 -6 -15 -7 -32 -3 -37 4 -4 10 -32 12 -61 5 -52
5 -53 -21 -50 -23 3 -26 8 -29 50 -2 37 -7 48 -23 53 -28 9 -31 4 -33 -52 -1
-42 -4 -48 -23 -51 -23 -3 -23 -2 -23 118 l0 121 67 -3 c64 -3 68 -5 77 -31z
m76 -87 c0 -113 -1 -120 -20 -120 -11 0 -20 5 -21 10 0 6 0 42 0 80 0 154 -1
150 21 150 19 0 20 -7 20 -120z m220 85 c0 -19 4 -35 8 -35 5 0 16 16 25 35
13 26 23 35 42 35 31 0 31 -6 -1 -54 l-27 -39 31 -68 c31 -70 31 -79 1 -79
-12 0 -25 16 -38 46 -24 53 -41 50 -41 -7 0 -32 -3 -39 -20 -39 -19 0 -20 7
-20 120 0 113 1 120 20 120 16 0 20 -7 20 -35z m408 18 c-3 -18 -19 -20 -195
-22 -39 -1 -43 -3 -43 -26 0 -22 4 -25 35 -25 28 0 35 -4 35 -20 0 -16 -7 -20
-35 -20 -33 0 -35 -2 -35 -34 0 -32 1 -33 38 -32 31 1 37 -2 40 -22 3 -21 1
-22 -60 -20 l-63 3 -1 118 -2 117 145 0 c132 0 144 -1 141 -17z m-1308 -91
c-12 -71 -49 -172 -84 -231 l-21 -36 -6 40 c-6 48 -27 83 -54 92 -96 30 -255
-51 -321 -163 -36 -61 -42 -48 -11 20 31 67 104 141 172 172 59 28 147 32 201
9 l35 -14 30 47 c16 25 37 71 46 100 22 69 28 51 13 -36z m1258 -34 c-3 -88
-4 -93 -25 -96 -22 -3 -23 -1 -23 92 l0 96 25 0 26 0 -3 -92z m-1236 -116
c-27 -106 -56 -163 -111 -221 -82 -89 -195 -118 -248 -65 -22 22 -25 32 -20
67 6 47 52 97 88 97 20 0 20 -1 -5 -31 -33 -39 -33 -64 -1 -85 83 -55 249 112
296 297 8 29 15 46 17 36 2 -9 -5 -52 -16 -95z m33 -90 c-23 -101 -55 -164
-119 -227 -65 -65 -132 -97 -216 -102 -54 -3 -71 0 -104 19 -103 61 -102 202
3 311 48 51 100 77 155 77 55 0 76 -24 76 -88 0 -35 -6 -49 -29 -73 -16 -16
-37 -29 -45 -29 -15 0 -15 2 -1 24 9 14 15 39 13 58 -3 29 -7 33 -35 36 -73 7
-153 -75 -153 -157 0 -175 253 -154 378 33 35 52 68 129 78 181 4 22 9 34 12
27 2 -7 -4 -47 -13 -90z m284 46 c5 -13 12 -47 16 -76 4 -29 10 -51 13 -48 3
3 10 36 16 73 10 57 15 68 31 68 17 0 22 -12 34 -72 7 -40 17 -71 21 -68 4 2
10 32 13 66 8 71 12 79 38 79 23 0 23 1 3 -97 -17 -84 -22 -111 -23 -130 -1
-7 -14 -13 -30 -13 -27 0 -29 3 -41 63 l-13 62 -10 -55 c-10 -63 -21 -80 -45
-75 -9 2 -20 4 -24 4 -5 1 -8 11 -8 24 0 13 -9 63 -19 112 -11 49 -18 92 -15
97 10 16 35 8 43 -14z m337 1 c25 -28 28 -179 3 -204 -26 -26 -81 -30 -109 -7
-21 17 -25 29 -28 93 -2 61 1 80 17 107 18 27 27 32 59 32 27 0 45 -7 58 -21z
m162 5 c24 -16 31 -77 12 -89 -7 -4 -8 -11 -1 -18 11 -15 19 -117 9 -117 -36
-1 -38 1 -38 38 0 41 -14 62 -42 62 -15 0 -18 -8 -18 -49 0 -32 -5 -51 -13
-54 -32 -12 -38 9 -36 119 1 60 4 112 6 117 8 13 98 7 121 -9z m100 -86 l3
-97 37 -3 c28 -2 37 -7 37 -21 0 -16 -9 -19 -60 -20 l-60 -2 -3 109 c-3 121 0
139 25 134 15 -3 18 -17 21 -100z m228 77 c9 -12 14 -48 14 -100 0 -107 -12
-119 -113 -116 l-38 1 2 113 c1 61 4 116 7 121 9 16 114 0 128 -19z m-1900
-12 c19 -4 22 -11 20 -63 l-1 -57 -24 23 c-13 13 -31 24 -40 24 -25 0 -41 20
-41 51 0 28 21 41 50 32 8 -3 25 -8 36 -10z m17 10 c-7 -2 -19 -2 -25 0 -7 3
-2 5 12 5 14 0 19 -2 13 -5z m-55 -171 c2 -7 -3 -12 -12 -12 -9 0 -16 7 -16
16 0 17 22 14 28 -4z m29 -57 c0 -8 -6 -15 -14 -15 -14 0 -17 12 -6 23 11 11
20 8 20 -8z m1171 -52 c6 -9 12 -27 12 -40 0 -30 -32 -31 -45 0 -6 12 -17 22
-25 22 -12 0 -15 -16 -15 -85 0 -78 2 -85 20 -85 12 0 21 9 25 25 8 36 34 32
38 -6 3 -35 -9 -49 -54 -58 -23 -5 -37 -2 -55 12 -20 17 -24 30 -27 93 -4 84
8 125 40 139 29 12 69 4 86 -17z m-1212 -10 c10 -16 19 -45 20 -66 1 -21 5
-41 10 -45 4 -4 4 2 0 13 -5 16 -2 15 14 -5 11 -14 20 -29 20 -35 0 -5 -4 -3
-10 5 -5 8 -11 12 -13 10 -8 -8 12 -50 23 -50 6 0 8 5 4 12 -5 7 -3 8 5 3 9
-5 10 -10 2 -18 -6 -6 -11 -24 -11 -39 0 -15 -4 -28 -8 -28 -9 0 -46 127 -57
197 -4 24 -11 45 -16 49 -9 5 -13 24 -5 24 2 0 12 -12 22 -27z m1294 -78 c5
-94 6 -100 28 -103 24 -4 24 -5 26 143 1 54 3 60 24 63 22 3 22 2 22 -100 0
-127 -7 -141 -74 -142 -68 -1 -76 13 -76 142 0 102 0 103 23 100 21 -3 22 -9
27 -103z m240 95 c24 -13 35 -63 19 -92 -16 -30 -28 -38 -61 -38 -25 0 -27 -3
-30 -47 -3 -41 -6 -48 -25 -51 -23 -3 -23 -2 -23 117 l0 121 51 0 c28 0 59 -4
69 -10z m-700 -231 c0 -36 7 -87 16 -113 9 -26 14 -50 10 -53 -9 -10 -36 18
-51 52 -7 18 -42 70 -78 115 l-66 83 67 67 67 66 17 -75 c10 -42 18 -106 18
-142z m-749 174 c-8 -15 -10 -15 -11 -2 0 17 10 32 18 25 2 -3 -1 -13 -7 -23z
m59 -47 c0 -3 -4 -8 -10 -11 -5 -3 -10 -1 -10 4 0 6 5 11 10 11 6 0 10 -2 10
-4z m428 -99 c4 -20 -25 -34 -40 -19 -15 15 -1 44 19 40 10 -2 19 -11 21 -21z
m66 -52 c2 -7 -1 -21 -9 -31 -11 -15 -15 -16 -29 -5 -19 16 -20 33 -5 48 13
13 35 7 43 -12z m-577 -47 c-3 -7 -5 -2 -5 12 0 14 2 19 5 13 2 -7 2 -19 0
-25z m631 -36 c-4 -23 -44 -28 -52 -6 -3 9 -1 23 5 30 15 18 51 -1 47 -24z
m-19 -122 c61 -61 117 -123 125 -138 19 -38 46 -151 47 -198 0 -21 8 -70 18
-109 14 -58 15 -72 4 -83 -7 -7 -13 -25 -13 -40 0 -22 -2 -24 -11 -12 -8 11
-9 6 -4 -22 3 -21 1 -39 -5 -43 -6 -3 -8 -10 -5 -15 3 -5 1 -11 -4 -14 -14 -9
-20 32 -9 71 10 38 3 115 -14 146 -5 11 -9 58 -9 105 0 48 -5 106 -11 130 -12
42 -19 50 -160 183 -48 46 -57 61 -63 102 -4 26 -5 47 -3 47 3 0 55 -50 117
-110z m-592 78 c-3 -8 -6 -5 -6 6 -1 11 2 17 5 13 3 -3 4 -12 1 -19z m653 -23
c17 -20 5 -45 -20 -45 -23 0 -35 22 -26 45 7 19 30 19 46 0z m79 -53 c12 -22
-3 -42 -30 -42 -19 0 -34 33 -24 50 10 16 44 11 54 -8z m55 -61 c16 -17 16
-20 0 -35 -19 -19 -33 -17 -48 6 -7 12 -6 21 3 32 17 21 24 20 45 -3z m-153
-148 c25 -45 31 -68 35 -139 7 -117 -7 -137 -35 -49 -11 38 -21 72 -21 77 0 5
-16 49 -35 98 -19 49 -35 94 -35 100 0 23 62 -37 91 -87z m204 17 c3 -5 0 -10
-8 -10 -7 0 -14 -7 -14 -15 0 -18 13 -20 20 -2 4 9 6 9 6 -1 1 -18 -29 -27
-39 -11 -9 14 5 49 20 49 5 0 12 -4 15 -10z m5 -105 c-9 -10 -9 -15 -1 -15 6
0 11 -4 11 -10 0 -12 -22 -9 -32 4 -10 14 2 36 19 36 13 0 13 -3 3 -15z m-6
-91 c3 -8 2 -12 -4 -9 -6 3 -10 10 -10 16 0 14 7 11 14 -7z m-70 -320 c3 -8 2
-12 -4 -9 -6 3 -10 10 -10 16 0 14 7 11 14 -7z"/>
<path d="M2890 3084 c0 -8 5 -12 10 -9 6 3 10 10 10 16 0 5 -4 9 -10 9 -5 0
-10 -7 -10 -16z"/>
<path d="M2910 3024 c0 -8 5 -12 10 -9 6 4 8 11 5 16 -9 14 -15 11 -15 -7z"/>
<path d="M2440 2980 c0 -5 5 -10 11 -10 5 0 7 5 4 10 -3 6 -8 10 -11 10 -2 0
-4 -4 -4 -10z"/>
<path d="M2920 2945 c-8 -9 -8 -15 -2 -15 18 0 42 12 42 21 0 14 -26 10 -40
-6z"/>
<path d="M3577 2128 c7 -41 7 -41 32 -33 25 8 29 50 5 59 -35 13 -44 7 -37
-26z"/>
<path d="M3660 1798 c0 -81 8 -102 36 -96 17 3 19 13 19 83 0 80 0 80 -27 83
l-28 3 0 -73z"/>
<path d="M3830 1841 c0 -27 4 -31 26 -31 22 0 25 4 22 28 -2 19 -9 28 -25 30
-20 3 -23 -1 -23 -27z"/>
<path d="M4150 1784 c0 -84 0 -85 23 -78 30 9 29 8 34 61 6 60 -10 103 -37
103 -19 0 -20 -6 -20 -86z"/>
<path d="M3748 1546 c4 -31 6 -34 26 -27 32 12 29 55 -5 59 -23 3 -25 0 -21
-32z"/>
</g>
</svg>
